G04 ================== begin FILE IDENTIFICATION RECORD ==================*
G04 Layout Name:  1111592_xilinx_usb_cable_166_20220629_PCB.brd*
G04 Film Name:    art04*
G04 File Format:  Gerber RS274X*
G04 File Origin:  Cadence Allegro 16.6-2015-S108*
G04 Origin Date:  Wed Jun 29 15:49:56 2022*
G04 *
G04 Layer:  VIA CLASS/BOTTOM*
G04 Layer:  PIN/BOTTOM*
G04 Layer:  ETCH/BOTTOM*
G04 *
G04 Offset:    (0.00 0.00)*
G04 Mirror:    No*
G04 Mode:      Positive*
G04 Rotation:  0*
G04 FullContactRelief:  No*
G04 UndefLineWidth:     6.00*
G04 ================== end FILE IDENTIFICATION RECORD ====================*
%FSLAX55Y55*MOIN*%
%IR0*IPPOS*OFA0.00000B0.00000*MIA0B0*SFA1.00000B1.00000*%
%ADD12C,.022*%
%ADD11C,.04*%
%ADD18C,.026*%
%ADD10C,.08*%
%ADD16C,.018*%
%ADD13C,.056*%
%ADD14R,.056X.056*%
%ADD17O,.06X.035*%
%ADD19O,.026X.038*%
%ADD15C,.177*%
%ADD20C,.015*%
%ADD21C,.006*%
%ADD22C,.0061*%
%ADD23C,.009*%
%ADD28C,.03404*%
%ADD27C,.03804*%
%ADD25C,.11811*%
%ADD24C,.11812*%
%ADD26C,.11813*%
G75*
%LPD*%
G75*
G36*
G01X-188976Y-17717D02*
G02X-194881Y-11812I1J5906D01*
G01Y-2169D01*
G02X-194681Y-1969I200J0D01*
G01X-163515D01*
G02X-163169Y-2571I0J-401D01*
G03X-151791I5689J-3335D01*
G02X-151444Y-1969I346J201D01*
G01X151444D01*
G02X151791Y-2571I1J-401D01*
G03X163169I5689J-3335D01*
G02X163515Y-1969I346J201D01*
G01X194681D01*
G02X194881Y-2169I0J-200D01*
G01Y-11812D01*
G02X188976Y-17717I-5906J1D01*
G01X-188976D01*
G37*
G36*
G01X-194681Y297244D02*
G02X-194881Y297444I0J200D01*
G01Y307087D01*
G02X-188976Y312992I5906J-1D01*
G01X188976D01*
G02X194881Y307087I-1J-5906D01*
G01Y297444D01*
G02X194681Y297244I-200J0D01*
G01X163515D01*
G02X163169Y297846I0J401D01*
G03X151791I-5689J3335D01*
G02X151445Y297244I-346J-201D01*
G01X-151445D01*
G02X-151791Y297846I0J401D01*
G03X-163169I-5689J3335D01*
G02X-163515Y297244I-346J-201D01*
G01X-194681D01*
G37*
G36*
G01X77581Y38900D02*
G03X78818Y35628I-81J-1900D01*
G02X79377Y35623I277J-288D01*
G01X85500Y29500D01*
X116500D01*
X119000Y27000D01*
X123500D01*
X126500Y30000D01*
X129500D01*
X131500Y28000D01*
X139000D01*
X140500Y29500D01*
Y47000D01*
X141500Y48000D01*
X144500D01*
X145500Y47000D01*
Y35000D01*
X157000Y23500D01*
X176498D01*
X176499Y23498D01*
X193999D01*
X194849Y22649D01*
Y7874D01*
G02X188976Y2001I-5873J0D01*
G01X7874D01*
G02X2001Y7874I0J5873D01*
G01Y90553D01*
G02X2078Y91500I5873J-1D01*
G02X7874Y96424I5796J-949D01*
G01X188976D01*
G02X194849Y90551I0J-5873D01*
G01Y75351D01*
X194498Y75000D01*
X177500D01*
X173000Y79500D01*
Y91500D01*
X172000Y92500D01*
X160000D01*
X158500Y91000D01*
Y70500D01*
X155000Y67000D01*
Y60000D01*
X154500Y59500D01*
X151235D01*
G03X148277I-1479J-843D01*
G01X147000D01*
X146500Y60000D01*
Y62000D01*
X148500Y64000D01*
Y88000D01*
X144000Y92500D01*
X134500D01*
X132500Y90500D01*
Y82402D01*
G03Y78598I0J-1902D01*
G01Y74000D01*
X120500Y62000D01*
Y43500D01*
X119500Y42500D01*
X89500D01*
X87500Y44500D01*
Y61000D01*
X78500Y70000D01*
X72500D01*
X69500Y67000D01*
Y66916D01*
X69498Y66915D01*
Y63585D01*
X69500Y63584D01*
Y61500D01*
X77998Y53002D01*
Y39300D01*
G02X77581Y38900I-400J0D01*
G37*
G36*
G01X72500Y68500D02*
X77000D01*
X85500Y60000D01*
Y44000D01*
X89000Y40500D01*
X121000D01*
X122500Y42000D01*
Y61500D01*
X128000Y67000D01*
X132500D01*
X133000Y66500D01*
Y64500D01*
X131000Y62500D01*
Y34000D01*
X128500Y31500D01*
X126000D01*
X123000Y28500D01*
X121000D01*
X118000Y31500D01*
X86000D01*
X79000Y38500D01*
Y57000D01*
X76348Y59652D01*
X76334Y59703D01*
G03X75003Y61034I-1834J-503D01*
G01X74952Y61048D01*
X73500Y62500D01*
X72000D01*
X70500Y64000D01*
Y66500D01*
X72500Y68500D01*
G37*
G36*
G01X139000Y57000D02*
Y30500D01*
X138000Y29500D01*
X134500D01*
X133000Y31000D01*
Y62000D01*
X134500Y63500D01*
Y90000D01*
X135500Y91000D01*
X143500D01*
X147000Y87500D01*
Y65000D01*
X139000Y57000D01*
G37*
G36*
G01X187000Y61500D02*
Y38462D01*
X174500Y25962D01*
X158500D01*
X147000Y37462D01*
Y46000D01*
X147994Y46994D01*
X150494D01*
X153275Y44212D01*
X171107D01*
G03X173043I968J1400D01*
G01X174500D01*
X178275Y47987D01*
Y54725D01*
X176500Y56500D01*
X166500D01*
X164000Y54000D01*
X162712D01*
X156500Y60212D01*
Y66500D01*
X160000Y70000D01*
Y90500D01*
X160500Y91000D01*
X171000D01*
X171500Y90500D01*
Y77000D01*
X187000Y61500D01*
G37*
%LPC*%
G75*
G36*
G01X22500Y69000D02*
X27000Y73500D01*
X30500D01*
X32250Y71750D01*
Y61250D01*
X29000Y58000D01*
Y34500D01*
X23500Y29000D01*
X8500D01*
X7000Y30500D01*
Y67500D01*
X8500Y69000D01*
X22500D01*
G37*
G36*
G01X125000Y76000D02*
X124000Y75000D01*
X67500D01*
X64500Y78000D01*
X63000D01*
X61252Y79748D01*
X61133Y79706D01*
G02X59714Y83232I-633J1794D01*
G01X59747Y83247D01*
X60000Y83500D01*
X62500D01*
X65000Y86000D01*
X115154D01*
X115314Y86159D01*
X115311Y86246D01*
G02X118306Y85194I1701J54D01*
G01X125000Y78500D01*
Y77806D01*
X125021Y77763D01*
G02Y76237I-1521J-763D01*
G01X125000Y76194D01*
Y76000D01*
G37*
G36*
G01X56970Y34543D02*
G03X57258Y35088I-81J391D01*
G01X50037Y52438D01*
X50008Y52466D01*
G02X52902Y53671I1192J1215D01*
G01Y53630D01*
X60609Y35113D01*
X60659Y35080D01*
G02X61283Y34386I-1059J-1580D01*
G01X61311Y34333D01*
X66129Y31698D01*
X66170Y31694D01*
G02X64666Y28943I-170J-1694D01*
G01X64641Y28975D01*
X61743Y30559D01*
G03X61152Y30209I-191J-351D01*
G01Y19600D01*
G02X58048I-1552J-1100D01*
G01Y31106D01*
G03X57568Y31498I-400J0D01*
G01X29392Y25702D01*
X29349Y25660D01*
G02X28711Y28764I-1349J1340D01*
G01X28767Y28742D01*
X56970Y34543D01*
G37*
G36*
G01X66644Y16702D02*
X69398Y19456D01*
Y29203D01*
G02X69500Y31877I1102J1297D01*
G01Y33882D01*
G02X72389Y35277I1000J1618D01*
G01X72377Y35180D01*
X74102Y33456D01*
Y18044D01*
X68556Y12498D01*
X63556D01*
X62456Y11398D01*
X54544D01*
X50641Y15302D01*
X50554Y15299D01*
G02X51304Y18500I-54J1701D01*
G01X53696D01*
G02X56201Y16946I804J-1500D01*
G01X56198Y16859D01*
X57456Y15602D01*
X60544D01*
X61644Y16702D01*
X66644D01*
G37*
G36*
G01X159600Y62785D02*
Y63985D01*
G02X162557Y66782I2801J0D01*
G02X166072Y69224I3515J-1309D01*
G01X168572D01*
G02Y61720I0J-3752D01*
G01X166072D01*
G02X165047Y61863I1J3752D01*
G02X159600Y62785I-2645J922D01*
G37*
G36*
G01X166072Y29200D02*
G02X162389Y32237I0J3752D01*
G02X161174Y37557I12J2801D01*
G03X161360Y38090I-175J360D01*
G02X164412Y37559I1715J822D01*
G03X164406Y36995I281J-285D01*
G02X164802Y36482I-2005J-1957D01*
G02X166072Y36704I1271J-3530D01*
G01X168572D01*
G02Y29200I0J-3752D01*
G01X166072D01*
G37*
G54D28*
X66000Y26000D03*
G54D27*
X51500Y74781D03*
X57000Y88500D03*
X66000Y10000D03*
X64118Y75000D03*
X66500Y60581D03*
X77500Y88500D03*
X91422Y92500D03*
X110126Y13456D03*
Y8456D03*
Y18456D03*
X95344Y26800D03*
X103233D03*
X115000Y91000D03*
X120000D03*
X110000Y92500D03*
X128000Y35500D03*
Y42000D03*
X141500Y64000D03*
X137500Y85500D03*
X156423Y38385D03*
X169875Y59055D03*
G54D25*
X-177165Y305118D03*
G54D24*
Y-9843D03*
X177165D03*
G54D26*
Y305118D03*
%LPD*%
G75*
G54D10*
X-177165Y-9843D03*
Y305118D03*
X177165Y-9843D03*
Y305118D03*
G54D20*
G01X59600Y33500D02*
X28000Y27000D01*
G01X59600Y33500D02*
X51200Y53681D01*
G01X59600Y33500D02*
X66000Y30000D01*
G01X59600Y33500D02*
Y18500D01*
G01X154000Y60915D02*
Y54701D01*
X155454Y53247D01*
G54D11*
X-157480Y-5906D03*
Y301181D03*
X157480Y-5906D03*
Y301181D03*
G54D21*
G01X28500Y71500D02*
Y61000D01*
X26500Y59000D01*
Y41200D01*
X18764Y33464D01*
G01X26000Y62500D02*
X24000Y60500D01*
Y46574D01*
X18764Y41338D01*
G01X50500Y17000D02*
X55000Y12500D01*
X62000D01*
X63100Y13600D01*
X68100D01*
X73000Y18500D01*
Y33000D01*
X70500Y35500D01*
G01Y30500D02*
Y19000D01*
X67100Y15600D01*
X62100D01*
X61000Y14500D01*
X57000D01*
X54500Y17000D01*
G01X65000Y81500D02*
X66000D01*
X68500Y79000D01*
X70400D01*
X73100Y81700D01*
X118800D01*
X123500Y77000D01*
G01X74000Y79400D02*
X116781D01*
X118981Y77200D01*
G01X117012Y86300D02*
X114712Y84000D01*
X72000D01*
X69500Y81500D01*
G01X115044Y77200D02*
X67500D01*
X65508Y79192D01*
X63808D01*
X61500Y81500D01*
X60500D01*
G54D12*
X3200Y11500D03*
X4000Y6000D03*
X7500Y17500D03*
X3200Y31500D03*
Y26500D03*
Y21500D03*
Y16500D03*
Y46500D03*
Y41500D03*
Y36500D03*
Y56500D03*
Y61500D03*
Y66500D03*
Y51500D03*
Y71500D03*
Y76500D03*
Y81500D03*
Y86500D03*
X3500Y92000D03*
X14000Y10000D03*
X21500Y15500D03*
X14000Y15000D03*
X8500Y8500D03*
X20000Y8000D03*
X10500Y3500D03*
X17500D03*
X11500Y22000D03*
X22500Y80000D03*
X8500Y77000D03*
X10500Y71500D03*
X14000Y77000D03*
X10500Y83000D03*
X18000Y84000D03*
X22000Y90500D03*
X9000Y95000D03*
X10000Y90000D03*
X18000Y95000D03*
X25500Y10000D03*
Y3500D03*
X38500Y23500D03*
X28000Y17500D03*
Y27000D03*
X31000Y50500D03*
X37500D03*
X26000Y62500D03*
X37500Y56500D03*
X31000D03*
X26000Y67000D03*
X28500Y71500D03*
X38500Y76000D03*
X32000Y77500D03*
X26500Y84000D03*
X26000Y95000D03*
X60100Y3100D03*
X50100D03*
X55650Y26000D03*
X49350D03*
X59600Y18500D03*
X51000Y40500D03*
X46000D03*
Y50500D03*
X57200Y48700D03*
X47579Y35000D03*
X59600Y33500D03*
X46000Y56500D03*
X59000Y64531D03*
X55500Y80000D03*
X46000Y79500D03*
X59000Y70831D03*
X51500Y74781D03*
X50500Y95000D03*
X50000Y86000D03*
X59000Y95300D03*
X57000Y88500D03*
X70100Y3100D03*
X66000Y10000D03*
X70500Y35500D03*
X74500Y49500D03*
X65200Y48700D03*
X77500Y37000D03*
X66500Y60581D03*
X74500Y59200D03*
X71800Y66173D03*
X65000Y81500D03*
X74000Y79400D03*
X69500Y81500D03*
X60500D03*
X74500Y73500D03*
X64118Y75000D03*
X69000Y95300D03*
X77500Y88500D03*
X83000Y8500D03*
X88000D03*
Y13500D03*
X83000D03*
X90100Y3100D03*
X80100D03*
X87422Y26800D03*
X83000Y18500D03*
X88000D03*
Y23500D03*
X83000D03*
X94300Y49519D03*
X89300Y44519D03*
X87000Y34563D03*
Y38500D03*
X94300Y59519D03*
X89300Y64519D03*
Y54519D03*
X94300Y69519D03*
X89300Y74019D03*
X89000Y95300D03*
X79000D03*
X87422Y92500D03*
X91422D03*
X110100Y3100D03*
X100100D03*
X110126Y8456D03*
Y13456D03*
X107233Y26800D03*
X99344D03*
X95344D03*
X110126Y18456D03*
X103233Y26800D03*
X104300Y49519D03*
X99300Y44519D03*
X109300D03*
X104300Y59519D03*
X99300Y64519D03*
X109300D03*
Y54519D03*
X99300D03*
X104300Y69519D03*
X109300Y74019D03*
X99300D03*
X99000Y89000D03*
Y95300D03*
X108700D03*
X106000Y92500D03*
X110000D03*
X130100Y3100D03*
X120100D03*
X121500Y6500D03*
X122500Y25500D03*
X121500Y18346D03*
X126500Y28500D03*
X122500Y29500D03*
X114300Y49519D03*
X128000Y35500D03*
Y42000D03*
X119300Y44519D03*
X114300Y59519D03*
X119300Y54519D03*
Y64519D03*
X127500Y80500D03*
X114300Y69519D03*
X124000Y85500D03*
X119300Y74019D03*
X129000Y95300D03*
X119000D03*
X120000Y91000D03*
X115000D03*
X145500Y9000D03*
X140100Y3100D03*
X139500Y11654D03*
X134831Y6500D03*
X146000Y18000D03*
X146500Y29000D03*
X141500Y30000D03*
X139500Y22000D03*
X137500Y30500D03*
X144500Y43012D03*
X141500Y36500D03*
Y45000D03*
Y64000D03*
X131516Y66173D03*
X131500Y85500D03*
X137500D03*
X145500Y73100D03*
Y69163D03*
X132500Y80500D03*
X139000Y95300D03*
X145500Y92500D03*
X138000Y90000D03*
X141937D03*
X159000Y8000D03*
X152500Y11500D03*
X160100Y3100D03*
X150100Y3200D03*
X159500Y16500D03*
X151500Y23000D03*
X164000Y19800D03*
X163075Y38912D03*
X156423Y38385D03*
X149033Y46000D03*
X163181Y43306D03*
X163075Y54833D03*
X157500Y70800D03*
Y76500D03*
X165000Y74500D03*
X161900Y70800D03*
X159000Y95300D03*
X149000D03*
X157500Y86500D03*
X167000Y10500D03*
X175000Y14500D03*
X174500Y6500D03*
X170100Y3100D03*
X178500Y22000D03*
X167322Y16622D03*
X170500Y19800D03*
X169875Y43306D03*
Y59055D03*
X173500Y58000D03*
X178500Y76500D03*
X176500Y79500D03*
X174600Y85100D03*
X174500Y92000D03*
X169000Y95300D03*
X166000Y90000D03*
X183500Y22000D03*
X188500D03*
X193500D03*
X183500Y76500D03*
X188500D03*
X193500D03*
G54D22*
G01X149756Y55888D02*
X149016Y56628D01*
X146110D01*
X145200Y55718D01*
Y53000D01*
X147200Y51000D01*
X152500D01*
X153710Y49790D01*
X155647D01*
X156454Y50597D01*
G01Y47828D02*
X155782Y48500D01*
X153175D01*
X151965Y49710D01*
X146665D01*
X143910Y52465D01*
Y56253D01*
X145575Y57918D01*
X149017D01*
X149756Y58657D01*
G01X169744Y46843D02*
X170584Y47683D01*
X173925D01*
X175390Y49148D01*
Y52609D01*
X173509Y54490D01*
X169289D01*
X164099Y49300D01*
X160200D01*
X159642Y49858D01*
X157193D01*
X156454Y50597D01*
G01X169744Y49612D02*
X170383Y48973D01*
X173390D01*
X174100Y49683D01*
Y52074D01*
X172974Y53200D01*
X169824D01*
X164634Y48010D01*
X159665D01*
X159107Y48568D01*
X157194D01*
X156454Y47828D01*
G54D13*
X10890Y33464D03*
Y49212D03*
Y41338D03*
X18764Y49212D03*
Y41338D03*
X10890Y64960D03*
Y57086D03*
X18764Y64960D03*
Y57086D03*
G54D23*
G01X163275Y51364D02*
X162100D01*
X156964Y56500D01*
X156500D01*
G54D14*
X18764Y33464D03*
G54D15*
X38000Y10000D03*
Y88425D03*
X186850Y10000D03*
Y88425D03*
G54D16*
X40000Y67500D03*
X50500Y17000D03*
X54500D03*
X51500Y60581D03*
X51200Y53681D03*
X70500Y30500D03*
X66000Y18000D03*
Y22000D03*
Y26000D03*
Y30000D03*
Y34000D03*
X123500Y77000D03*
X118981Y77200D03*
X115044D03*
X117012Y86300D03*
X147300Y54600D03*
Y60000D03*
X154575Y46012D03*
X156454Y47828D03*
X155454Y53247D03*
X149756Y55888D03*
X156454Y50597D03*
X149756Y58657D03*
X163275Y51364D03*
X156500Y56500D03*
X172075Y45612D03*
X169744Y46843D03*
Y49612D03*
X172075Y51012D03*
G54D17*
X167322Y32952D03*
Y65472D03*
X190747Y31535D03*
Y66889D03*
G54D18*
X162401Y35039D03*
G54D19*
Y63385D03*
M02*
