M48
INCH
T01C.008
T02C.01
T03C.036
T04C.106
T05C.026
T06C.08
;LEADER: 12 
;HEADER: 
;CODE  : ASCII 
;FILE  : 1111592_xilinx_usb_cable_166_20220629-1-4.drl for  ... layers TOP and BOTTOM
;DESIGN: 1111592_xilinx_usb_cable_166_20220629_PCB.brd
;T01 Holesize 1. = 8.000000 Tolerance = +0.000000/-0.000000 PLATED MILS Quantity = 29
;T02 Holesize 2. = 10.000000 Tolerance = +0.000000/-0.000000 PLATED MILS Quantity = 226
;T03 Holesize 3. = 36.000000 Tolerance = +0.000000/-0.000000 PLATED MILS Quantity = 10
;T04 Holesize 4. = 106.000000 Tolerance = +0.000000/-0.000000 PLATED MILS Quantity = 4
;T05 Holesize 5. = 26.000000 Tolerance = +0.000000/-0.000000 NON_PLATED MILS Quantity = 1
;T06 Holesize 6. = 80.000000 Tolerance = +0.000000/-0.000000 NON_PLATED MILS Quantity = 4
%
G90
T01
X0000156500Y0000056500
X0000163275Y0000051364
X0000156454Y0000047828
X0000149756Y0000058657
X0000169744Y0000049612
X0000169744Y0000046843
X0000156454Y0000050597
X0000149756Y0000055888
X0000066000Y0000030000
X0000051200Y0000053681
X0000066000Y0000026000
X0000066000Y0000022000
X0000066000Y0000034000
X0000172075Y0000045612
X0000172075Y0000051012
X0000154575Y0000046012
X0000040000Y0000067500
X0000147300Y0000060000
X0000147300Y0000054600
X0000155454Y0000053247
X0000051500Y0000060581
X0000066000Y0000018000
X0000070500Y0000030500
X0000054500Y0000017000
X0000050500Y0000017000
X0000115044Y0000077200
X0000117012Y0000086300
X0000118981Y0000077200
X0000123500Y0000077000
T02
X0000122500Y0000029500
X0000131516Y0000066173
X0000087000Y0000038500
X0000087000Y0000034563
X0000071800Y0000066173
X0000059600Y0000033500
X0000059600Y0000018500
X0000028000Y0000027000
X0000077500Y0000037000
X0000066000Y0000010000
X0000051500Y0000074781
X0000064118Y0000075000
X0000074500Y0000059200
X0000066500Y0000060581
X0000132500Y0000080500
X0000057000Y0000088500
X0000077500Y0000088500
X0000091422Y0000092500
X0000115000Y0000091000
X0000120000Y0000091000
X0000110000Y0000092500
X0000103233Y0000026800
X0000110126Y0000013456
X0000110126Y0000008456
X0000110126Y0000018456
X0000095344Y0000026800
X0000173500Y0000058000
X0000163075Y0000054833
X0000163181Y0000043306
X0000149033Y0000046000
X0000161900Y0000070800
X0000165000Y0000074500
X0000166000Y0000090000
X0000169875Y0000043306
X0000137500Y0000030500
X0000145500Y0000069163
X0000145500Y0000073100
X0000141937Y0000090000
X0000138000Y0000090000
X0000049350Y0000026000
X0000055650Y0000026000
X0000047579Y0000035000
X0000028000Y0000017500
X0000038500Y0000023500
X0000004000Y0000006000
X0000003200Y0000011500
R02Y0000005000
X0000139500Y0000022000
X0000126500Y0000028500
X0000121500Y0000006500
X0000134831Y0000006500
X0000139500Y0000011654
X0000121500Y0000018346
X0000170500Y0000019800
X0000164000Y0000019800
X0000167322Y0000016622
X0000119300Y0000044519
R03X-0000010000
X0000089300Y0000054519
R02X0000010000
X0000109300Y0000064519
R02X-0000010000
X0000089300Y0000074019
R03X0000010000
X0000119300Y0000064519
X0000119300Y0000054519
X0000065200Y0000048700
X0000074500Y0000049500
X0000099344Y0000026800
X0000141500Y0000030000
X0000141500Y0000045000
X0000141500Y0000036500
X0000144500Y0000043012
X0000122500Y0000025500
X0000156423Y0000038385
X0000163075Y0000038912
X0000026000Y0000067000
X0000059000Y0000070831
X0000059000Y0000064531
X0000074500Y0000073500
X0000141500Y0000064000
X0000157500Y0000076500
X0000157500Y0000086500
X0000157500Y0000070800
X0000169875Y0000059055
X0000087422Y0000092500
X0000106000Y0000092500
X0000137500Y0000085500
X0000131500Y0000085500
X0000145500Y0000092500
X0000003200Y0000026500
R05Y0000005000
X0000003200Y0000081500
R05Y-0000005000
X0000003500Y0000092000
X0000003200Y0000086500
X0000059000Y0000095300
R03X0000010000
X0000108700Y0000095300
X0000119000Y0000095300
X0000099000Y0000095300
X0000149000Y0000095300
X0000139000Y0000095300
X0000129000Y0000095300
X0000169000Y0000095300
X0000159000Y0000095300
X0000057200Y0000048700
X0000050100Y0000003100
R09X0000010000
X0000150100Y0000003200
X0000160100Y0000003100
X0000170100Y0000003100
X0000174500Y0000006500
X0000175000Y0000014500
X0000174600Y0000085100
X0000174500Y0000092000
X0000128000Y0000042000
X0000128000Y0000035500
X0000124000Y0000085500
X0000026000Y0000095000
X0000018000Y0000095000
X0000010000Y0000090000
X0000009000Y0000095000
X0000022000Y0000090500
X0000026500Y0000084000
X0000032000Y0000077500
X0000038500Y0000076000
X0000050000Y0000086000
X0000050500Y0000095000
X0000046000Y0000079500
X0000018000Y0000084000
X0000010500Y0000083000
X0000014000Y0000077000
X0000010500Y0000071500
X0000008500Y0000077000
X0000022500Y0000080000
X0000025500Y0000003500
X0000017500Y0000003500
X0000010500Y0000003500
X0000025500Y0000010000
X0000020000Y0000008000
X0000008500Y0000008500
X0000014000Y0000015000
X0000007500Y0000017500
X0000011500Y0000022000
X0000021500Y0000015500
X0000014000Y0000010000
X0000083000Y0000023500
X0000088000Y0000023500
X0000088000Y0000018500
X0000083000Y0000018500
X0000083000Y0000013500
X0000088000Y0000013500
X0000088000Y0000008500
X0000083000Y0000008500
X0000146500Y0000029000
X0000146000Y0000018000
X0000145500Y0000009000
X0000151500Y0000023000
X0000152500Y0000011500
X0000159500Y0000016500
X0000159000Y0000008000
X0000167000Y0000010500
X0000099000Y0000089000
X0000114300Y0000059519
R02X-0000010000
X0000094300Y0000049519
R02X0000010000
X0000114300Y0000069519
R02X-0000010000
X0000176500Y0000079500
X0000055500Y0000080000
X0000127500Y0000080500
X0000087422Y0000026800
X0000107233Y0000026800
X0000193500Y0000076500
R03X-0000005000
X0000193500Y0000022000
R03X-0000005000
X0000031000Y0000056500
X0000037500Y0000056500
X0000037500Y0000050500
X0000031000Y0000050500
X0000046000Y0000056500
X0000046000Y0000050500
X0000046000Y0000040500
X0000051000Y0000040500
X0000070500Y0000035500
X0000060500Y0000081500
X0000069500Y0000081500
X0000074000Y0000079400
X0000065000Y0000081500
X0000026000Y0000062500
X0000028500Y0000071500
T03
X0000018764Y0000033464
X0000010890Y0000033464
X0000018764Y0000041338
X0000010890Y0000041338
X0000018764Y0000049212
X0000010890Y0000049212
X0000018764Y0000057086
X0000010890Y0000057086
X0000018764Y0000064960
X0000010890Y0000064960
T04
X0000038000Y0000088425
X0000038000Y0000010000
X0000186850Y0000010000
X0000186850Y0000088425
T05
X0000162401Y0000035039
T06
X-0000177165Y0000305118
X-0000177165Y-0000009843
X0000177165Y0000305118
X0000177165Y-0000009843
M30
