G04 ================== begin FILE IDENTIFICATION RECORD ==================*
G04 Layout Name:  1111592_xilinx_usb_cable_166_20220629_PCB.brd*
G04 Film Name:    pasttop*
G04 File Format:  Gerber RS274X*
G04 File Origin:  Cadence Allegro 16.6-2015-S108*
G04 Origin Date:  Wed Jun 29 15:49:56 2022*
G04 *
G04 Layer:  PIN/PASTEMASK_TOP*
G04 Layer:  PACKAGE GEOMETRY/PASTEMASK_TOP*
G04 *
G04 Offset:    (0.00 0.00)*
G04 Mirror:    No*
G04 Mode:      Positive*
G04 Rotation:  0*
G04 FullContactRelief:  No*
G04 UndefLineWidth:     0.00*
G04 ================== end FILE IDENTIFICATION RECORD ====================*
%FSLAX55Y55*MOIN*%
%IR0*IPPOS*OFA0.00000B0.00000*MIA0B0*SFA1.00000B1.00000*%
%ADD10C,.04*%
%ADD15R,.027X.008*%
%AMMACRO26*
4,1,8,-.005,-.01,
-.011,-.004,
-.011,.004,
-.005,.01,
.005,.01,
.011,.004,
.011,-.004,
.005,-.01,
-.005,-.01,
0.0*
%
%ADD26MACRO26*%
%AMMACRO22*
4,1,8,.01,-.005,
.004,-.011,
-.004,-.011,
-.01,-.005,
-.01,.005,
-.004,.011,
.004,.011,
.01,.005,
.01,-.005,
0.0*
%
%ADD22MACRO22*%
%ADD35O,.02756X.00984*%
%ADD33R,.03X.01*%
%ADD28R,.01X.06*%
%ADD27R,.06X.01*%
%ADD34R,.025X.01*%
%ADD32R,.032X.03*%
%ADD25R,.024X.02*%
%ADD31R,.03X.032*%
%ADD17R,.02X.024*%
%ADD12R,.02X.025*%
%ADD21R,.036X.01*%
%ADD20R,.01X.036*%
%ADD14R,.027X.01*%
%ADD13R,.05X.032*%
%ADD11R,.025X.02*%
%ADD19R,.01X.036*%
%ADD18R,.036X.01*%
%ADD36R,.032X.054*%
%ADD23R,.07X.025*%
%ADD16R,.027X.016*%
%AMMACRO24*
4,1,8,-.01,.005,
-.004,.011,
.004,.011,
.01,.005,
.01,-.005,
.004,-.011,
-.004,-.011,
-.01,-.005,
-.01,.005,
0.0*
%
%ADD24MACRO24*%
%ADD30R,.05512X.04724*%
%AMMACRO29*
4,1,8,.005,.01,
.011,.004,
.011,-.004,
.005,-.01,
-.005,-.01,
-.011,-.004,
-.011,.004,
-.005,.01,
.005,.01,
0.0*
%
%ADD29MACRO29*%
G75*
%LPD*%
G75*
G36*
G01X51909Y25409D02*
Y23835D01*
X48366D01*
Y25409D01*
X51909D01*
G37*
G36*
G01X56634D02*
Y23835D01*
X53091D01*
Y25409D01*
X56634D01*
G37*
G36*
G01X51909Y28165D02*
Y26591D01*
X48366D01*
Y28165D01*
X51909D01*
G37*
G36*
G01X56634D02*
Y26591D01*
X53091D01*
Y28165D01*
X56634D01*
G37*
G36*
G01X58409Y63547D02*
X56835D01*
Y67090D01*
X58409D01*
Y63547D01*
G37*
G36*
G01Y68272D02*
X56835D01*
Y71815D01*
X58409D01*
Y68272D01*
G37*
G36*
G01X61165Y63547D02*
X59591D01*
Y67090D01*
X61165D01*
Y63547D01*
G37*
G36*
G01Y68272D02*
X59591D01*
Y71815D01*
X61165D01*
Y68272D01*
G37*
G54D10*
X-157480Y-5906D03*
Y301181D03*
X157480Y-5906D03*
Y301181D03*
G54D11*
X35000Y31000D03*
X31000D03*
Y23500D03*
X35000D03*
X31000Y27000D03*
X35000D03*
X60000Y13000D03*
X43500Y65281D03*
X47500D03*
X43500Y60781D03*
X47500D03*
X43500Y74381D03*
X47500D03*
X43500Y69781D03*
X47500D03*
X64000Y13000D03*
X140500Y53500D03*
X136500D03*
X152775Y43012D03*
X148775D03*
X161500Y73500D03*
X157500D03*
X153500Y69500D03*
X149500D03*
X153500Y73000D03*
X149500D03*
X158500Y90000D03*
X162500D03*
G54D20*
X58016Y60594D03*
Y74768D03*
X59984Y60594D03*
Y74768D03*
G54D30*
X126169Y11654D03*
Y18346D03*
X134831Y11654D03*
Y18346D03*
G54D21*
X53882Y62760D03*
Y64728D03*
Y66697D03*
Y68665D03*
Y70634D03*
Y72602D03*
X64118Y66697D03*
Y64728D03*
Y62760D03*
Y72602D03*
Y70634D03*
Y68665D03*
G54D12*
X31000Y39200D03*
Y43200D03*
X74000Y37500D03*
Y41500D03*
X69500Y51500D03*
Y55500D03*
X60500Y84500D03*
X65000D03*
X69500D03*
X74000D03*
X60500Y88500D03*
X65000D03*
X69500D03*
X74000D03*
X79500Y29728D03*
Y33728D03*
X136000Y76500D03*
Y80500D03*
X145500Y85016D03*
X141200Y80500D03*
Y76500D03*
X145500Y80516D03*
Y76516D03*
Y89016D03*
X152909Y56500D03*
Y60500D03*
X167322Y20500D03*
Y24500D03*
G54D13*
X36500Y39200D03*
Y44200D03*
X66500D03*
Y39200D03*
G54D31*
X129500Y89500D03*
X123500D03*
G54D22*
X57200Y51681D03*
Y55681D03*
X53200Y51681D03*
Y55681D03*
X68000Y20000D03*
Y24000D03*
X64000Y20000D03*
Y24000D03*
X65200Y51681D03*
Y55681D03*
X74500Y52330D03*
Y56330D03*
X61200Y51681D03*
Y55681D03*
X119481Y25500D03*
Y29500D03*
X141500Y67500D03*
Y71500D03*
X134500Y85500D03*
Y89500D03*
G54D23*
X74913Y13456D03*
Y8456D03*
Y23456D03*
Y18456D03*
X95339Y8456D03*
Y13456D03*
Y18456D03*
Y23456D03*
G54D14*
X32583Y64275D03*
X36071D03*
X32583Y72149D03*
X36071D03*
G54D32*
X137500Y38000D03*
Y44000D03*
X136500Y65500D03*
Y71500D03*
G54D24*
X68000Y12000D03*
Y32000D03*
Y28000D03*
Y16000D03*
X64000Y32000D03*
Y28000D03*
X74500Y66173D03*
Y70173D03*
G54D33*
X159803Y38385D03*
Y40354D03*
Y42322D03*
Y44291D03*
Y46259D03*
Y48228D03*
Y50196D03*
Y52165D03*
Y54133D03*
Y56102D03*
Y58070D03*
Y60039D03*
X166495Y49212D03*
Y47243D03*
Y45275D03*
Y43306D03*
Y41338D03*
Y39369D03*
Y37401D03*
Y59055D03*
Y57086D03*
Y55118D03*
Y53149D03*
Y51181D03*
G54D15*
X32583Y66243D03*
X36071D03*
X32583Y70181D03*
X36071D03*
G54D16*
X32583Y68212D03*
X36071D03*
G54D25*
X74000Y29728D03*
Y33272D03*
G54D34*
X149033Y48228D03*
X152517D03*
X149033Y50197D03*
Y52166D03*
X152517D03*
Y50197D03*
G54D17*
X51728Y13000D03*
X55272D03*
X150228Y90000D03*
X153772D03*
G54D35*
X161240Y78547D03*
Y80516D03*
Y82484D03*
Y84453D03*
X153760D03*
Y82484D03*
Y80516D03*
Y78547D03*
G54D26*
X87422Y29500D03*
X91422D03*
X87422Y89500D03*
X91422D03*
X103126Y23456D03*
X107126D03*
X106000Y89500D03*
X110000D03*
X126500Y25000D03*
X130500D03*
G54D36*
X157500Y81500D03*
G54D18*
X59587Y26984D03*
Y25016D03*
X45413D03*
Y26984D03*
G54D27*
X81776Y48456D03*
Y46488D03*
Y44519D03*
Y66173D03*
Y64204D03*
Y62236D03*
Y60267D03*
Y58299D03*
Y56330D03*
Y54362D03*
Y52393D03*
Y50425D03*
Y74047D03*
Y72078D03*
Y70110D03*
Y68141D03*
X126658Y44519D03*
Y46488D03*
Y48456D03*
Y50425D03*
Y52393D03*
Y54362D03*
Y56330D03*
Y58299D03*
Y60267D03*
Y62236D03*
Y64204D03*
Y66173D03*
Y68141D03*
Y70110D03*
Y72078D03*
Y74047D03*
G54D19*
X57421Y20882D03*
X55453D03*
X53484D03*
X51516D03*
X49547D03*
X47579D03*
Y31118D03*
X49547D03*
X51516D03*
X53484D03*
X55453D03*
X57421D03*
G54D28*
X89453Y36842D03*
X91422D03*
X93390D03*
Y81724D03*
X91422D03*
X89453D03*
X95359Y36842D03*
X97327D03*
X99296D03*
X101264D03*
X103233D03*
X105201D03*
X107170D03*
X109138D03*
X111107D03*
Y81724D03*
X109138D03*
X107170D03*
X105201D03*
X103233D03*
X101264D03*
X99296D03*
X97327D03*
X95359D03*
X113075Y36842D03*
X115044D03*
X117012D03*
X118981D03*
Y81724D03*
X117012D03*
X115044D03*
X113075D03*
G54D29*
X107126Y13456D03*
X103126D03*
X107126Y8456D03*
X103126D03*
X107126Y18456D03*
X103126D03*
X107233Y29500D03*
X103233D03*
X99344D03*
X95344D03*
X138831Y25000D03*
X134831D03*
X140500Y49000D03*
X136500D03*
X141500Y33500D03*
X137500D03*
X140500Y61000D03*
X136500D03*
M02*
