G04 ================== begin FILE IDENTIFICATION RECORD ==================*
G04 Layout Name:  1111592_xilinx_usb_cable_166_20220629_PCB.brd*
G04 Film Name:    pgp02*
G04 File Format:  Gerber RS274X*
G04 File Origin:  Cadence Allegro 16.6-2015-S108*
G04 Origin Date:  Wed Jun 29 15:49:56 2022*
G04 *
G04 Layer:  VIA CLASS/GND02*
G04 Layer:  PIN/GND02*
G04 Layer:  ETCH/GND02*
G04 *
G04 Offset:    (0.00 0.00)*
G04 Mirror:    No*
G04 Mode:      Positive*
G04 Rotation:  0*
G04 FullContactRelief:  No*
G04 UndefLineWidth:     6.00*
G04 ================== end FILE IDENTIFICATION RECORD ====================*
%FSLAX55Y55*MOIN*%
%IR0*IPPOS*OFA0.00000B0.00000*MIA0B0*SFA1.00000B1.00000*%
%ADD11C,.022*%
%ADD16C,.026*%
%ADD10C,.08*%
%ADD14C,.018*%
%ADD12C,.056*%
%ADD15O,.06X.035*%
%ADD17O,.026X.038*%
%ADD13C,.177*%
%ADD19C,.03404*%
%ADD20C,.07204*%
%ADD18C,.03804*%
G75*
%LPD*%
G75*
G36*
G01X2004Y90551D02*
G02X7874Y96421I5870J0D01*
G01X188976D01*
G02X194846Y90551I0J-5870D01*
G01Y75348D01*
X193999Y74502D01*
X176499D01*
X175998Y74001D01*
Y23999D01*
X176499Y23498D01*
X193999D01*
X194846Y22652D01*
Y7874D01*
G02X188976Y2004I-5870J0D01*
G01X7874D01*
G02X2004Y7874I0J5870D01*
G01Y90551D01*
G37*
%LPC*%
G75*
G36*
G01X87986Y36189D02*
G02X86014I-986J-1626D01*
G03Y36874I-207J343D01*
G02X87986I986J1626D01*
G03Y36189I207J-343D01*
G37*
G36*
G01X146486Y70789D02*
G02X144514I-986J-1626D01*
G03Y71474I-207J343D01*
G02X146486I986J1626D01*
G03Y70789I207J-343D01*
G37*
G36*
G01X139626Y89014D02*
G02Y90986I-1626J986D01*
G03X140311I343J207D01*
G02Y89014I1626J-986D01*
G03X139626I-342J-207D01*
G37*
G36*
G01X166072Y29200D02*
G02X162389Y32237I0J3752D01*
G02X164802Y36482I12J2802D01*
G02X166072Y36704I1271J-3530D01*
G01X168572D01*
G02Y29200I0J-3752D01*
G01X166072D01*
G37*
G36*
G01X170852Y45551D02*
G03X170897Y44910I260J-304D01*
G02X168737Y44830I-1022J-1604D01*
G03X168735Y45472I-239J320D01*
G02X168463Y47964I1009J1371D01*
G03Y48491I-301J263D01*
G02X171025I1281J1121D01*
G03Y47964I301J-263D01*
G02X170852Y45551I-1281J-1121D01*
G37*
G36*
G01X157735Y49476D02*
G03Y48949I301J-263D01*
G02X155173I-1281J-1121D01*
G03Y49476I-301J263D01*
G02X157735I1281J1121D01*
G37*
G36*
G01X164278Y53360D02*
G03X164292Y52729I253J-310D01*
G02X162108Y52603I-1017J-1365D01*
G03X162050Y53231I-274J291D01*
G02X164278Y53360I1025J1602D01*
G37*
G36*
G01X151037Y57536D02*
G03Y57009I301J-263D01*
G02X148475I-1281J-1121D01*
G03Y57536I-301J263D01*
G02X151037I1281J1121D01*
G37*
G36*
G01X159600Y62785D02*
Y63985D01*
G02X162557Y66782I2801J0D01*
G02X166072Y69224I3515J-1309D01*
G01X168572D01*
G02Y61720I0J-3752D01*
G01X166072D01*
G02X165047Y61863I1J3752D01*
G02X159600Y62785I-2645J922D01*
G37*
G54D19*
X156500Y56500D03*
X123500Y77000D03*
X117012Y86300D03*
X118981Y77200D03*
X115044D03*
X66000Y26000D03*
Y30000D03*
X70500Y30500D03*
X51200Y53681D03*
X54500Y17000D03*
X50500D03*
G54D20*
X18764Y57086D03*
Y64960D03*
X10890Y57086D03*
X18764Y33464D03*
Y41338D03*
Y49212D03*
X10890Y41338D03*
Y49212D03*
G54D18*
X166000Y90000D03*
X161900Y70800D03*
X165000Y74500D03*
X173500Y58000D03*
X163181Y43306D03*
X131516Y66173D03*
X132500Y80500D03*
X122500Y29500D03*
X149033Y46000D03*
X137500Y30500D03*
X110000Y92500D03*
X120000Y91000D03*
X115000D03*
X103233Y26800D03*
X95344D03*
X110126Y18456D03*
Y8456D03*
Y13456D03*
X91422Y92500D03*
X77500Y88500D03*
X71800Y66173D03*
X66500Y60581D03*
X74500Y59200D03*
X64118Y75000D03*
X65000Y81500D03*
X69500D03*
X74000Y79400D03*
X77500Y37000D03*
X70500Y35500D03*
X66000Y10000D03*
X57000Y88500D03*
X51500Y74781D03*
X60500Y81500D03*
X59600Y33500D03*
Y18500D03*
X28000Y27000D03*
X28500Y71500D03*
X26000Y62500D03*
%LPD*%
G75*
G54D10*
X-177165Y-9843D03*
Y305118D03*
X177165Y-9843D03*
Y305118D03*
G54D11*
X3200Y11500D03*
X4000Y6000D03*
X7500Y17500D03*
X3200Y31500D03*
Y26500D03*
Y21500D03*
Y16500D03*
Y46500D03*
Y41500D03*
Y36500D03*
Y56500D03*
Y61500D03*
Y66500D03*
Y51500D03*
Y71500D03*
Y76500D03*
Y81500D03*
Y86500D03*
X3500Y92000D03*
X14000Y10000D03*
X21500Y15500D03*
X14000Y15000D03*
X8500Y8500D03*
X20000Y8000D03*
X10500Y3500D03*
X17500D03*
X11500Y22000D03*
X22500Y80000D03*
X8500Y77000D03*
X10500Y71500D03*
X14000Y77000D03*
X10500Y83000D03*
X18000Y84000D03*
X22000Y90500D03*
X9000Y95000D03*
X10000Y90000D03*
X18000Y95000D03*
X25500Y10000D03*
Y3500D03*
X38500Y23500D03*
X28000Y17500D03*
Y27000D03*
X31000Y50500D03*
X37500D03*
X26000Y62500D03*
X37500Y56500D03*
X31000D03*
X26000Y67000D03*
X28500Y71500D03*
X38500Y76000D03*
X32000Y77500D03*
X26500Y84000D03*
X26000Y95000D03*
X60100Y3100D03*
X50100D03*
X55650Y26000D03*
X49350D03*
X59600Y18500D03*
X51000Y40500D03*
X46000D03*
Y50500D03*
X57200Y48700D03*
X47579Y35000D03*
X59600Y33500D03*
X46000Y56500D03*
X59000Y64531D03*
X55500Y80000D03*
X46000Y79500D03*
X59000Y70831D03*
X51500Y74781D03*
X50500Y95000D03*
X50000Y86000D03*
X59000Y95300D03*
X57000Y88500D03*
X70100Y3100D03*
X66000Y10000D03*
X70500Y35500D03*
X74500Y49500D03*
X65200Y48700D03*
X77500Y37000D03*
X66500Y60581D03*
X74500Y59200D03*
X71800Y66173D03*
X65000Y81500D03*
X74000Y79400D03*
X69500Y81500D03*
X60500D03*
X74500Y73500D03*
X64118Y75000D03*
X69000Y95300D03*
X77500Y88500D03*
X83000Y8500D03*
X88000D03*
Y13500D03*
X83000D03*
X90100Y3100D03*
X80100D03*
X87422Y26800D03*
X83000Y18500D03*
X88000D03*
Y23500D03*
X83000D03*
X94300Y49519D03*
X89300Y44519D03*
X87000Y34563D03*
Y38500D03*
X94300Y59519D03*
X89300Y64519D03*
Y54519D03*
X94300Y69519D03*
X89300Y74019D03*
X89000Y95300D03*
X79000D03*
X87422Y92500D03*
X91422D03*
X110100Y3100D03*
X100100D03*
X110126Y8456D03*
Y13456D03*
X107233Y26800D03*
X99344D03*
X95344D03*
X110126Y18456D03*
X103233Y26800D03*
X104300Y49519D03*
X99300Y44519D03*
X109300D03*
X104300Y59519D03*
X99300Y64519D03*
X109300D03*
Y54519D03*
X99300D03*
X104300Y69519D03*
X109300Y74019D03*
X99300D03*
X99000Y89000D03*
Y95300D03*
X108700D03*
X106000Y92500D03*
X110000D03*
X130100Y3100D03*
X120100D03*
X121500Y6500D03*
X122500Y25500D03*
X121500Y18346D03*
X126500Y28500D03*
X122500Y29500D03*
X114300Y49519D03*
X128000Y35500D03*
Y42000D03*
X119300Y44519D03*
X114300Y59519D03*
X119300Y54519D03*
Y64519D03*
X127500Y80500D03*
X114300Y69519D03*
X124000Y85500D03*
X119300Y74019D03*
X129000Y95300D03*
X119000D03*
X120000Y91000D03*
X115000D03*
X145500Y9000D03*
X140100Y3100D03*
X139500Y11654D03*
X134831Y6500D03*
X146000Y18000D03*
X146500Y29000D03*
X141500Y30000D03*
X139500Y22000D03*
X137500Y30500D03*
X144500Y43012D03*
X141500Y36500D03*
Y45000D03*
Y64000D03*
X131516Y66173D03*
X131500Y85500D03*
X137500D03*
X145500Y73100D03*
Y69163D03*
X132500Y80500D03*
X139000Y95300D03*
X145500Y92500D03*
X138000Y90000D03*
X141937D03*
X159000Y8000D03*
X152500Y11500D03*
X160100Y3100D03*
X150100Y3200D03*
X159500Y16500D03*
X151500Y23000D03*
X164000Y19800D03*
X163075Y38912D03*
X156423Y38385D03*
X149033Y46000D03*
X163181Y43306D03*
X163075Y54833D03*
X157500Y70800D03*
Y76500D03*
X165000Y74500D03*
X161900Y70800D03*
X159000Y95300D03*
X149000D03*
X157500Y86500D03*
X167000Y10500D03*
X175000Y14500D03*
X174500Y6500D03*
X170100Y3100D03*
X178500Y22000D03*
X167322Y16622D03*
X170500Y19800D03*
X169875Y43306D03*
Y59055D03*
X173500Y58000D03*
X178500Y76500D03*
X176500Y79500D03*
X174600Y85100D03*
X174500Y92000D03*
X169000Y95300D03*
X166000Y90000D03*
X183500Y22000D03*
X188500D03*
X193500D03*
X183500Y76500D03*
X188500D03*
X193500D03*
G54D12*
X10890Y33464D03*
X18764D03*
X10890Y49212D03*
Y41338D03*
X18764Y49212D03*
Y41338D03*
X10890Y64960D03*
Y57086D03*
X18764Y64960D03*
Y57086D03*
G54D13*
X38000Y10000D03*
Y88425D03*
X186850Y10000D03*
Y88425D03*
G54D14*
X40000Y67500D03*
X50500Y17000D03*
X54500D03*
X51500Y60581D03*
X51200Y53681D03*
X70500Y30500D03*
X66000Y18000D03*
Y22000D03*
Y26000D03*
Y30000D03*
Y34000D03*
X123500Y77000D03*
X118981Y77200D03*
X115044D03*
X117012Y86300D03*
X147300Y54600D03*
Y60000D03*
X154575Y46012D03*
X156454Y47828D03*
X155454Y53247D03*
X149756Y55888D03*
X156454Y50597D03*
X149756Y58657D03*
X163275Y51364D03*
X156500Y56500D03*
X172075Y45612D03*
X169744Y46843D03*
Y49612D03*
X172075Y51012D03*
G54D15*
X167322Y32952D03*
Y65472D03*
X190747Y31535D03*
Y66889D03*
G54D16*
X162401Y35039D03*
G54D17*
Y63385D03*
M02*
